<?xml version="1.0" standalone="no"?>
<!DOCTYPE svg PUBLIC "-//W3C//DTD SVG 20010904//EN"
 "http://www.w3.org/TR/2001/REC-SVG-20010904/DTD/svg10.dtd">
<svg version="1.0" xmlns="http://www.w3.org/2000/svg"
 width="120.000000pt" height="120.000000pt" viewBox="0 0 120.000000 120.000000"
 preserveAspectRatio="xMidYMid meet">
<metadata>
Created by potrace 1.14, written by Peter Selinger 2001-2017
</metadata>
<g transform="translate(0.000000,120.000000) scale(0.100000,-0.100000)"
fill="#000000" stroke="none">
<path d="M440 1176 c-111 -33 -177 -71 -257 -147 -78 -74 -146 -195 -170 -301
-9 -42 -10 -202 -1 -248 22 -113 76 -211 167 -301 126 -125 269 -181 446 -175
254 9 470 175 548 421 33 103 30 273 -5 367 -70 186 -209 322 -388 379 -99 32
-244 34 -340 5z"/>
</g>
</svg>
